# xmcd CD database file
#
# Track frame offsets:
#	150
#	13602
#	31547
#	48617
#	68167
#	82937
#	99730
#	125152
#	141205
#	161475
#	186085
#	202572
#	216930
#	235247
#	250377
#	262577
#	284557
#	294410
#	317225
#	333215
#
# Disc length: 4667 seconds
#
# Revision: 1
# Processed by: cddbd v1.5.2PL0 Copyright (c) Steve Scherf et al.
# Submitted via: CDex 1.70beta2
#
DISCID=1c123914
DTITLE=Stephane Grapelli - Live FestiJazz Rimouski
DYEAR=1998
DGENRE=Jazz
TTITLE0=All God's Chillun Got Rhythm
TTITLE1=I Thought About You
TTITLE2=It's You Or No One
TTITLE3=Night And Day
TTITLE4=Makin' Whoopee
TTITLE5=I Get A Kick Out Of You
TTITLE6=Someone To Watch Over Me
TTITLE7=Blue Moon
TTITLE8=Crazy Rhythm
TTITLE9=The Very Thought Of You
TTITLE10=Fascinating Rhythm
TTITLE11=Limehouse Blues
TTITLE12=Honeysuckle Rose
TTITLE13=In A Sentimental Mood
TTITLE14=Them There Eyes
TTITLE15=Nuages
TTITLE16=Daphne
TTITLE17=Do You Know What It Means To Miss New Orleans
TTITLE18=Sweet Georgia Brown
TTITLE19=Lady Be Good
EXTD=YEAR: 1998
EXTT0=
EXTT1=
EXTT2=
EXTT3=
EXTT4=
EXTT5=
EXTT6=
EXTT7=
EXTT8=
EXTT9=
EXTT10=
EXTT11=
EXTT12=
EXTT13=
EXTT14=
EXTT15=
EXTT16=
EXTT17=
EXTT18=
EXTT19=
PLAYORDER=
